Coordinates
version=1
nRows=10
nColumns=33
inDegrees=yes

Units are S.I. units (second, meters, Newtons, ...)
Angles are in degrees.

endheader
time	ground_thorax_rot_x	ground_thorax_rot_y	ground_thorax_rot_z	ground_thorax_tx	ground_thorax_ty	ground_thorax_tz	clav_prot_r	clav_elev_r	scapula_abduction_r	scapula_elevation_r	scapula_upward_rot_r	scapula_winging_r	shoulder_elv_r	plane_of_elev_r	axial_rot_r	elbow_flexion_r	pro_sup_r	wrist_flex_r	wrist_dev_r	clav_prot_l	clav_elev_l	scapula_abduction_l	scapula_elevation_l	scapula_upward_rot_l	scapula_winging_l	shoulder_elv_l	plane_of_elev_l	axial_rot_l	elbow_flexion_l	pro_sup_l	wrist_flex_l	wrist_dev_l
      4.92000000	    -36.60163026	     -6.59276620	     11.69827573	    -77.34917904	    767.40383954	      6.46234554	      1.20150678	    -45.00000000	     45.00000000	    -45.00000000	     -3.80261392	   2424.24206694	  -1919.08096919	    151.24958500	   -112.51170547	   1448.83027403	     29.31886568	     16.90341514	     10.85573258	     17.87105310	     36.94512910	    -45.00000000	    -36.39880458	    -28.25512115	     79.17325860	     65.81129267	     24.91266658	    -34.09672921	   2526.86666126	     27.54480588	      8.47499370	    -18.03551563
      4.93000000	    -36.62800793	     -6.54544565	     11.62455143	    -76.57127562	    767.55529863	      6.59727536	      1.05862263	    -45.00000000	     45.00000000	    -45.00000000	     -3.63230192	   2424.44734730	  -1919.05575174	    151.37007367	   -112.54245267	   1448.87803651	     28.77452991	     16.90681469	     10.91505467	     17.67273163	     37.03762437	    -45.00000000	    -36.39331151	    -27.91145078	     78.91485807	     65.88237155	     24.60559268	    -33.93021500	   2526.93143866	     27.53148363	      8.52317813	    -18.09785191
      4.94000000	    -36.62340590	     -6.43186933	     11.46948027	    -75.85750062	    767.73265019	      6.73565112	      1.04427378	    -45.00000000	     45.00000000	    -45.00000000	     -3.36721110	   2424.45825833	  -1919.14808191	    151.27018169	   -112.58992446	   1448.81350986	     28.27568631	     16.86646438	     10.93042182	     17.77381013	     36.93503757	    -45.00000000	    -36.31807079	    -27.71282764	     79.05220651	     65.71185637	     24.91342410	    -33.84724881	   2526.76761581	     27.50342301	      8.55502641	    -18.06097194
      4.95000000	    -36.60715809	     -6.40222475	     11.49043046	    -75.20327762	    767.93104352	      6.88078940	      0.91174878	    -45.00000000	     45.00000000	    -45.00000000	     -3.37483483	   2424.83031708	  -1918.97103942	    151.45933659	   -112.41280583	   1448.76230384	     27.89496448	     16.88211898	     11.02769495	     17.59373953	     37.12125468	    -45.00000000	    -36.24205352	    -27.48794339	     78.56502239	     65.98071758	     24.52469069	    -33.82910162	   2526.58627355	     27.47794565	      8.64545641	    -18.09170000
      4.96000000	    -36.61776334	     -6.23373497	     11.22850872	    -74.60290136	    768.14355259	      7.01732318	      0.97341060	    -45.00000000	     45.00000000	    -45.00000000	     -2.88870436	   2424.46546018	  -1919.34542751	    151.11764837	   -112.48805001	   1448.75295734	     27.47229081	     16.79463552	     10.91085166	     17.77892693	     36.90636266	    -45.00000000	    -36.15392293	    -27.35295834	     79.09054337	     65.59854024	     25.15903781	    -33.80183141	   2526.61519454	     27.38587127	      8.58653852	    -18.02627124
      4.97000000	    -36.57439643	     -6.28599954	     11.31532811	    -74.06461274	    768.35987768	      7.14298249	      0.83182318	    -45.00000000	     45.00000000	    -45.00000000	     -2.72980382	   2424.67383089	  -1919.20647655	    151.34676934	   -112.27645008	   1448.81323429	     27.15167451	     16.82382140	     10.93088568	     17.56541366	     37.12328041	    -45.00000000	    -36.03013897	    -27.10357461	     78.78693696	     65.86676914	     24.66195865	    -33.80875696	   2526.76016144	     27.30539923	      8.63525934	    -18.12359339
      4.98000000	    -36.61110816	     -6.17258760	     11.15658905	    -73.59261139	    768.56988104	      7.24641778	      0.78533856	    -45.00000000	     45.00000000	    -45.00000000	     -2.62367309	   2424.80765977	  -1919.23834613	    151.30514022	   -112.04967428	   1448.86879557	     26.93339522	     16.86427928	     10.95875548	     17.63554609	     36.98949122	    -45.00000000	    -36.08404580	    -26.93870946	     78.86278754	     65.64757763	     24.87952202	    -33.87463315	   2526.72666135	     27.24619585	      8.60719393	    -18.08976581
      4.99000000	    -36.61679873	     -6.13354153	     11.14176746	    -73.19165974	    768.76485314	      7.32992243	      0.73737440	    -45.00000000	     45.00000000	    -45.00000000	     -2.50311680	   2424.84732684	  -1919.18648883	    151.34708543	   -111.89099201	   1449.05148325	     26.77896721	     16.89591244	     10.88663170	     17.50362249	     37.02503685	    -45.00000000	    -36.13101014	    -26.80433782	     78.59545784	     65.75139066	     24.63109304	    -34.00948722	   2526.82743196	     27.21585336	      8.67238798	    -18.16576359
      5.00000000	    -36.60301165	     -6.11973303	     11.03871303	    -72.86228189	    768.93879061	      7.38953881	      0.71065486	    -45.00000000	     45.00000000	    -45.00000000	     -2.31193592	   2424.86687093	  -1919.35972941	    151.26624423	   -111.75302511	   1448.96603807	     26.71726482	     16.89604048	     10.88689985	     17.61913197	     36.93548773	    -45.00000000	    -35.97352498	    -26.62802735	     78.97024507	     65.57776246	     24.95291224	    -34.03147467	   2526.73234124	     27.18353958	      8.55274421	    -18.07147304
      5.01000000	    -36.60418787	     -6.07972047	     11.08623719	    -72.60430548	    769.08798975	      7.43509250	      0.63929765	    -45.00000000	     45.00000000	    -45.00000000	     -2.17008564	   2424.96146580	  -1919.31671088	    151.37052494	   -111.62469272	   1449.02961135	     26.69901309	     16.89733771	     10.81395028	     17.41698836	     37.01198851	    -45.00000000	    -35.94113479	    -26.53020056	     78.63209975	     65.78902835	     24.54490166	    -34.21500793	   2526.90380828	     27.20044294	      8.64961154	    -18.19346119
